<svg width="28" height="28" viewBox="0 0 28 28" fill="none" xmlns="http://www.w3.org/2000/svg">
<path d="M20.9862 26.4444H6.17981C5.3441 26.4444 4.66663 25.7706 4.66663 24.9393V3.06068C4.66663 2.22941 5.3441 1.55554 6.17981 1.55554H14.9079C20.7185 1.55554 23.3333 5.67359 23.3333 9.79163C23.3333 13.2956 21.4812 16.3661 17.45 17.3775L22.2205 24.0686C22.9311 25.0653 22.2146 26.4444 20.9862 26.4444Z" fill="url(#paint0_linear_1781_146)"/>
<path opacity="0.64" d="M6.22218 1.55554H9.33329V26.4444H6.22218C5.36307 26.4444 4.66663 25.7706 4.66663 24.9393V3.06068C4.66663 2.22941 5.36307 1.55554 6.22218 1.55554Z" fill="url(#paint1_linear_1781_146)"/>
<defs>
<linearGradient id="paint0_linear_1781_146" x1="14.2905" y1="1.55554" x2="14.2905" y2="26.4444" gradientUnits="userSpaceOnUse">
<stop stop-color="#2ED4FF"/>
<stop offset="1" stop-color="#0088FF"/>
</linearGradient>
<linearGradient id="paint1_linear_1781_146" x1="8.90663" y1="1.55554" x2="8.90663" y2="26.4444" gradientUnits="userSpaceOnUse">
<stop stop-color="#3525D3"/>
<stop offset="1" stop-color="#3525D3" stop-opacity="0.24"/>
</linearGradient>
</defs>
</svg>
